<svg id="Layer_2" data-name="Layer 2" xmlns="http://www.w3.org/2000/svg" viewBox="0 0 269.47 268.72"><defs><style>.cls-1{fill:#fd9327;}</style></defs><title>express-logo</title><path class="cls-1" d="M1288.81,1827.94a128,128,0,0,1-4.27,45,114.14,114.14,0,0,1-17,36.13c-5.37,7.45-10.57,15-16.87,21.6a126,126,0,0,1-30.68,23.42,131.58,131.58,0,0,1-36.76,13.58c-14.42,3-28.77,3.16-43.42,2.06a142.51,142.51,0,0,1-22.65-4c-7.52-1.8-14.54-4.85-21.43-8a119,119,0,0,1-25.68-16,140.19,140.19,0,0,1-25.75-27.33,134.79,134.79,0,0,1-17.21-33.45c-3.65-10.54-6.79-21.42-6.91-32.68-.11-10.64-1.12-21.34.74-31.94,1.76-10,3.75-20.09,7.67-29.48a148,148,0,0,1,17.59-31.11,131.79,131.79,0,0,1,16.51-18.49c11.78-10.91,25.3-19,39.92-25.54a96.23,96.23,0,0,1,22.67-7.14c14-2.41,28-3.85,42.32-2.11,7.34.89,14.45,2.21,21.63,3.81,10,2.22,18.79,7,28.1,10.71,10.66,4.24,18.67,12.37,27.7,19,5.73,4.18,9.6,10.31,14.12,15.73a125.56,125.56,0,0,1,25.93,51.35c.74,3,2.4,5.87,1.87,9.17A61.65,61.65,0,0,0,1288.81,1827.94Zm-137.35-52.29v0c-13.54,0-27.07.12-40.61-.1-2.7,0-3,1-3.23,3.09-.44,3.79,1.88,4.32,4.79,4.75,9.31,1.36,9.31,1.42,9.78,10.93.1,2,.16,4,.16,6q0,35.82,0,71.65c0,6.77,1.11,14-6.9,17.67-1.35.62-1.46,2.21-1,3.56.5,1.54,1.92,1,3,1,3.51,0,7-.11,10.53-.1,21.89.06,43.79,0,65.68.31,4.23.06,5.25-1.18,5.29-5.27.05-6.31,1-12.62,1.53-18.93.2-2.3.9-5-2.47-5.51s-4.74,1.58-5.16,4.7c-.38,2.8-1.09,5.56-1.59,8.34-.53,2.94-2,4.26-5.19,4.87-11.3,2.12-22.67,1-34,1.52-3.79.16-4.91-1.1-4.87-4.81.13-12.36.1-24.72-.21-37.07-.1-3.86,1.6-5,4.91-5.16a127,127,0,0,1,21,.91c3.27.42,5.17,2.17,5.49,5.46a37.73,37.73,0,0,1,.21,5.5c-.15,2.94,1.64,3.15,3.87,3.15s4-.14,3.86-3.11a294.35,294.35,0,0,1-.09-31,3.71,3.71,0,0,0-5.86-3.33c-1.77,1.2-1.54,3.17-1.66,5-.53,7.7-.87,8.11-8.63,8.27-6.35.14-12.7,0-19,0-2.66,0-4-.82-4-3.72q.36-17.28.51-34.56c0-3.09,1.39-3.94,4.3-3.88,7.68.18,15.37,0,23.06.16,11.06.26,11.21.46,12,11.5.17,2.43,0,4.56,3.63,4.55,3.43,0,3.71-2,3.92-4.45.49-5.82.72-11.69,1.69-17.43.64-3.8-.5-4.63-4-4.59C1178.54,1775.73,1165,1775.65,1151.46,1775.65Z" transform="translate(-1019.76 -1701.64)"/></svg>