<svg id="Layer_2" data-name="Layer 2" xmlns="http://www.w3.org/2000/svg" viewBox="0 0 193.89 268.26"><defs><style>.cls-1{fill:#fea001;}.cls-2{fill:#fec928;}.cls-3{fill:#f47f16;}</style></defs><title>firebase-logo</title><path class="cls-1" d="M1092.62,1702.42c2.63-1.18,4.65-.43,6.11,2,1.06,1.76,2.1,3.54,3.14,5.3a49.85,49.85,0,0,0,5.24,10.58l2.46,5.23c2.44,5.38,4.72,10.83,7.89,15.85a26.24,26.24,0,0,0,4.29,8.49c.57,2.66,2.08,4.88,3.4,7.19l7.89,16.46,6.58-15.43a1.34,1.34,0,0,0,.21-.95c3.5-4.9,4.31-11.22,8.33-15.85a8.24,8.24,0,0,1,6.26-.83l1.12.82a.71.71,0,0,0,.75.42l-.07-.08,8,15.44,6,11.6,2.41,5.19c2.3,6.15,6.39,11.48,8.19,17.86,1.57,3-1.47,3.64-2.72,4.8-7.64,7.09-14,15.48-22.57,21.62-8.1-14.2-14.5-29.29-22.49-44.53-13.52,25.6-26.55,50.26-39.56,74.93-10.26,19.46-20.56,38.9-30.67,58.44-1.06,2-3.71,3.93-2,6.88l-2.21,3.56c-1.15-.48-.91-1.58-1.1-2.49a139.4,139.4,0,0,0,3.11-18.94c1.57-9.46,3.64-18.85,4.46-28.43,1.93-5.09,1.67-10.57,2.78-15.8.81-6,2.39-11.8,2.48-17.86,1.77-5.11,2-10.5,2.91-15.77l2.1-13.68.21-3.06c1.12-4.18,2.3-8.34,2-12.74,2-5.43,2.05-11.21,3.07-16.81.7-4.91,2.21-9.71,2.14-14.74l3.12-17.87c.51-3.48,1.63-6.88,1.3-10.46a90.94,90.94,0,0,0,3.14-19Z" transform="translate(-1057.55 -1701.87)"/><path class="cls-2" d="M1122.9,1955.94a100.64,100.64,0,0,0-14.6-8.51l-1.31-1-15.59-9.07c-10-6.44-20.16-12.48-30.66-18l-2.08-2,2.21-3.56a14.91,14.91,0,0,0,1.66-1.26q45.31-45.28,90.59-90.58c1.1-1.1,2.41-2.09,2.42-3.88,8.54-6.14,14.93-14.54,22.57-21.62,1.25-1.16,4.29-1.85,2.72-4.8,2.59.23,3.56-2,5.16-3.33l15.74-15.56c5.59-4.62,9.88-10.63,15.85-14.84,4.77-.46,6.65,2.3,7.7,6.47.7,2.79.28,5.82,1.82,8.42-.1,5,1.7,9.8,2.24,14.75.36,2.22.67,4.45,1.08,6.66q2.51,13.49,5.06,27c0,5,1.42,9.83,2.28,14.72,1,5.27,1.13,10.7,3,15.8-.11,5,1.4,9.85,2.24,14.75,1.07,5.61,1.28,11.38,3.16,16.84-.06,4.65,1.17,9.1,2.11,13.59l.21,2.13,2.95,15.81a4.59,4.59,0,0,1-2.33,2.55l-31.48,18.84c-4.94,3-10.19,5.52-14.74,9.17h0l-1.3.82-.11-.06L1185,1955.9l-10.4,6.34-5.37,3.13c-3.71,1.89-7.26,4.2-11.61,4.38l-1,.21-2.11.16c-5.71-.13-10.82-2.24-15.77-4.87-1.71-1.12-3.17-2.68-5.31-3A42.25,42.25,0,0,0,1122.9,1955.94Z" transform="translate(-1057.55 -1701.87)"/><path class="cls-3" d="M1155.55,1818.1c0,1.79-1.32,2.78-2.42,3.88q-45.29,45.3-90.59,90.58a14.91,14.91,0,0,1-1.66,1.26c-1.76-3,.9-4.84,2-6.88,10.11-19.54,20.41-39,30.67-58.44,13-24.67,26-49.33,39.56-74.93C1141,1788.81,1147.44,1803.9,1155.55,1818.1Z" transform="translate(-1057.55 -1701.87)"/></svg>