<svg id="Layer_1" data-name="Layer 1"
    xmlns="http://www.w3.org/2000/svg" viewBox="0 0 374.65 259.71">
    <defs>
        <style>.cls-1{fill:#0d6efd;}</style>
    </defs>
    <title>webflow-logo</title>
    <path class="cls-1" d="M278,75.91s-30.45,95.4-32.7,103.5c-.9-8-23.1-179.4-23.1-179.4-51.9,0-79.5,36.9-94.2,75.9,0,0-37,95.7-40,103.65-.15-7.5-5.7-102.75-5.7-102.75C79.1,29,35.45,0,0,0l42.6,259.65c54.3-.15,83.55-36.9,98.85-76,0,0,32.55-84.45,33.9-88.2.3,3.6,23.4,164.25,23.4,164.25,54.45,0,83.85-34.35,99.6-72L374.7,0C320.85,0,292.5,36.75,278,75.91Z" transform="translate(-0.05)"/>
</svg>