<svg id="Layer_2" data-name="Layer 2" xmlns="http://www.w3.org/2000/svg" viewBox="0 0 269.28 268.72"><defs><style>.cls-1{fill:#df3538;}.cls-2{fill:#b6adad;}.cls-3{fill:#b72a34;}.cls-4{fill:#e32b3a;}.cls-5{fill:#f2eeee;}</style></defs><title>angular-logo</title><path class="cls-1" d="M1283.24,1796c-5.38-16-12.36-30.83-23.34-43.86-5.93-7-11.93-14-18.91-19.86-18.34-15.25-39.36-25.12-63.16-28.62-3.84-2.15-8-2.06-12.22-1.83-15.08-.45-30.09-.76-44.82,3.81-11.42,3.54-22.89,6.79-33.2,13.07-17.52,10.68-32.5,24-44.28,41a127.17,127.17,0,0,0-22.6,60.14c-2.41,23.41,0,46.53,9.68,68.56a137.11,137.11,0,0,0,36.91,50,130.18,130.18,0,0,0,30.39,19.5,134.64,134.64,0,0,0,36.33,11c20.17,3,40.3.92,60-4.56a120.18,120.18,0,0,0,39.29-19.17c18.19-13.42,32.7-30.16,42.54-50.78,7-14.6,11.85-29.82,12.84-45.87C1289.81,1830.9,1289,1813.24,1283.24,1796Zm-27.93-24.14c-3.77,30.38-7.19,60.8-10.76,91.21-1.28,10.9-2.83,21.77-3.94,32.69-.35,3.43-2.82,4.36-5,5.56q-30,16.27-60,32.36c-6.57,3.54-13.24,6.92-19.68,10.69-2.18,1.28-3.7,1.43-5.88.17q-25.87-14.9-51.86-29.59c-7.64-4.33-15.21-8.85-23.11-12.66-3.76-1.82-5-4.37-5.44-8q-3-25.53-6.14-51-4.27-34.93-8.6-69.84c-.08-.66-.19-1.32-.29-2-.31-2.29.88-3.13,2.94-3.85,12.85-4.47,25.62-9.16,38.45-13.68,18.16-6.39,36.37-12.63,54.5-19.11a12.82,12.82,0,0,1,9.15,0c24.46,8.47,49,16.76,73.49,25.12q9.44,3.22,18.83,6.57C1254.39,1767.37,1255.74,1768.47,1255.31,1771.91Z" transform="translate(-1019.86 -1701.64)"/><path class="cls-2" d="M1054.55,1771.44c-.31-2.29.88-3.13,2.94-3.85,12.85-4.47,25.62-9.16,38.45-13.68,18.16-6.39,36.37-12.63,54.5-19.11a12.82,12.82,0,0,1,9.15,0c24.46,8.47,49,16.76,73.49,25.12q9.44,3.22,18.83,6.57c2.47.89,3.82,2,3.39,5.42-3.77,30.38-7.19,60.8-10.76,91.21-1.28,10.9-2.83,21.77-3.94,32.69-.35,3.43-2.82,4.36-5,5.56q-30,16.27-60,32.36c-6.57,3.54-13.24,6.92-19.68,10.69-2.18,1.28-3.7,1.43-5.88.17q-25.87-14.9-51.86-29.59c-7.64-4.33-15.21-8.85-23.11-12.66-3.76-1.82-5-4.37-5.44-8q-3-25.53-6.14-51-4.27-34.93-8.6-69.84C1054.76,1772.76,1054.65,1772.1,1054.55,1771.44Zm96.77-25.8c-4.59.25-8.51,2.61-12.71,4.08-23.32,8.21-46.59,16.54-69.93,24.69-3.57,1.25-4.79,3-4.27,6.87,2.14,16.15,4,32.33,5.84,48.51,2.29,19.67,4.64,39.33,6.69,59,.37,3.55,2.1,5.26,4.88,6.79,15.51,8.53,30.89,17.3,46.51,25.62,8,4.27,15.56,9.45,24.11,12.72a11.35,11.35,0,0,0,2.82-.7q35.7-19.59,71.37-39.23a5.62,5.62,0,0,0,3.07-4.74q6.82-55,13.8-110c.37-2.88-.55-4.14-3.26-5.06-27.78-9.36-55.51-18.86-83.3-28.22C1155.22,1745.44,1153.31,1743.91,1151.32,1745.64Z" transform="translate(-1019.86 -1701.64)"/><path class="cls-3" d="M1151.32,1745.64c2-1.73,3.9-.2,5.63.38,27.78,9.36,55.51,18.86,83.3,28.22,2.72.92,3.63,2.17,3.26,5.06q-7,55-13.8,110a5.62,5.62,0,0,1-3.07,4.74q-35.7,19.59-71.37,39.23a11.36,11.36,0,0,1-2.82.7q.08-37.94.16-75.89c8.51-.1,17-.05,25.52-.37,3.07-.11,4.34,1.08,5.44,3.76,3.34,8.17,7,16.2,10.49,24.32.75,1.74,1.29,3.3,3.73,3.25,6.31-.13,12.63,0,19,0,.36-1.86-.67-3.08-1.28-4.39q-24-51.12-48.1-102.21c-4.84-10.2-9-20.75-14.72-30.52C1152.15,1749.8,1153.53,1747.33,1151.32,1745.64Z" transform="translate(-1019.86 -1701.64)"/><path class="cls-4" d="M1151.32,1745.64c2.21,1.69.83,4.16,1.34,6.22l-.91,1.92-60.89,134.76c7.06,0,13.22-.14,19.37.06,2.84.09,4.11-1,5.07-3.58,2.95-7.78,6.1-15.48,9.25-23.18.66-1.61.71-3.72,2.91-4.34l25.13.56q-.08,37.94-.16,75.88c-8.55-3.27-16.09-8.45-24.11-12.72-15.62-8.32-31-17.09-46.51-25.62-2.77-1.52-4.51-3.24-4.88-6.79-2.05-19.7-4.4-39.36-6.69-59-1.88-16.18-3.7-32.37-5.84-48.51-.52-3.91.7-5.62,4.27-6.87,23.34-8.15,46.61-16.48,69.93-24.69C1142.81,1748.25,1146.73,1745.89,1151.32,1745.64Z" transform="translate(-1019.86 -1701.64)"/><path class="cls-2" d="M1151.75,1753.78l.91-1.92c5.74,9.77,9.88,20.31,14.72,30.52q24.19,51,48.1,102.21c.61,1.31,1.64,2.53,1.28,4.39-6.36,0-12.68-.09-19,0-2.44,0-3-1.51-3.73-3.25-3.48-8.11-7.15-16.15-10.49-24.32-1.1-2.68-2.37-3.88-5.44-3.76-8.5.32-17,.27-25.52.37l-25.12-.56c4.06-1.26,8.22-.5,12.32-.53,13.51-.12,13.43,0,12.91-13.49-.11-2.75-.91-3.76-3.74-3.79-4.44,0-8.93.74-13.33-.49,11.28-.94,22.56,0,33.84-.11,3.44,0,4-.81,2.43-3.9-5.79-11.75-11.37-23.6-17-35.42-.57-1.18-.89-2.55-2.37-3q.08-20.14.15-40.28A3.08,3.08,0,0,0,1151.75,1753.78Z" transform="translate(-1019.86 -1701.64)"/><path class="cls-5" d="M1151.75,1753.78a3.08,3.08,0,0,1,.92,2.7q-.08,20.14-.15,40.28l-1.07,2.94c-5.64,11.9-10.6,24.09-15.37,36.36-.1,1-2.65,1.76-.44,3.13,4.4,1.24,8.89.45,13.33.49,2.83,0,3.63,1,3.74,3.79.52,13.45.6,13.37-12.91,13.49-4.1,0-8.27-.73-12.32.53-2.2.62-2.25,2.73-2.91,4.34-3.16,7.7-6.3,15.4-9.25,23.18-1,2.53-2.23,3.68-5.07,3.58-6.15-.2-12.3-.06-19.37-.06Z" transform="translate(-1019.86 -1701.64)"/><path class="cls-3" d="M1135.64,1839.2c-2.21-1.37.34-2.08.44-3.13,5.1,3.63,10.79,1.32,16.21,1.47,1.37,0,1.2-1.69,1.06-2.87a132.25,132.25,0,0,1,0-31.64c.21-1.71.06-3-1.91-3.32l1.07-2.94c1.48.46,1.81,1.83,2.37,3,5.66,11.82,11.24,23.67,17,35.42,1.53,3.1,1,3.86-2.43,3.9C1158.2,1839.24,1146.91,1838.26,1135.64,1839.2Z" transform="translate(-1019.86 -1701.64)"/><path class="cls-4" d="M1151.44,1799.71c2,.35,2.11,1.61,1.91,3.32a132.25,132.25,0,0,0,0,31.64c.14,1.18.31,2.9-1.06,2.87-5.42-.15-11.11,2.16-16.21-1.47C1140.85,1823.8,1145.8,1811.61,1151.44,1799.71Z" transform="translate(-1019.86 -1701.64)"/></svg>