<svg id="Layer_2" data-name="Layer 2" xmlns="http://www.w3.org/2000/svg" viewBox="0 0 227.94 268.72"><defs><style>.cls-1{fill:#feca2a;}.cls-2{fill:#767676;}.cls-3{fill:#fec23c;}.cls-4{fill:#febe5a;}.cls-5{fill:#fe8301;}</style></defs><title>firestore-logo</title><path class="cls-1" d="M1168.35,1789.55c10.08-9.88,20.08-19.84,30.26-29.62,5.74-5.52,10.67-4.09,11.94,3.69,4.76,29.16,9.25,58.36,13.84,87.54-2.94-.43-5.86-1-8.81-1.25-23.82-1.67-46.45,11.16-56.71,32.07a58.69,58.69,0,0,0,8.9,64.51c1.77,2,4,3.74,4.5,6.59-8.91,5.13-17.71,10.48-26.77,15.32-6,3.19-12.11,2.19-17.92-1.06q-41.28-23.08-82.57-46.12c-3.11-1.73-5.59-3.52-3.94-7.59h1.26c1,1.38,1.88.52,2.62-.24q48.67-48.94,97.32-97.91C1150.64,1806.52,1162.22,1800.78,1168.35,1789.55Z" transform="translate(-1040.53 -1701.64)"/><path class="cls-2" d="M1172.26,1953.09c-.54-2.85-2.73-4.57-4.5-6.59a58.69,58.69,0,0,1-8.9-64.51c10.26-20.91,32.89-33.75,56.71-32.07,3,.21,5.87.83,8.81,1.25,29.58,10.45,44.49,29.83,44.08,57.58-.33,22.41-10.67,39.23-30.08,49.84s-39.15,9.54-58.3-1.69C1177.59,1955.43,1175.72,1952.59,1172.26,1953.09Zm64.35-48.13c.81-12.92.29-12.08-9.69-18.25-11.4-7-21-7.08-32.72-.06-7.73,4.64-11.54,8.77-8.71,18.15,5.36-2.66,11-4.85,15.89-8,6.12-4,11.47-4.38,17.79-.3C1224.34,1899.79,1230.29,1901.94,1236.61,1905Zm-51,22.41c4.69-2.41,9.24-4.21,13.21-6.88,7.76-5.23,15-5.63,23-.31,4.35,2.88,9.08,5.79,14.45,6.44,2.88-8.88-1.14-12.76-8.57-17.14-12.1-7.13-22.11-7.32-34.28.12C1186.08,1914.08,1183.11,1918.09,1185.57,1927.37Zm46.14,2.5c-7.7-2.5-12.79-8.37-19.09-3.17-4.06,3.35-1.49,8.09-1.56,13.17Z" transform="translate(-1040.53 -1701.64)"/><path class="cls-3" d="M1042.31,1913.63h-1.26q13.38-86.08,26.76-172.17c1.58-10.19,2.92-20.43,4.6-30.6.64-3.92.89-8.67,6.3-9.19,4.7-.45,6.3,3.41,8.1,6.81q14.53,27.35,29.14,54.65c.86,1.61,1.23,3.64,3.19,4.5l.11,2c-3,1.41-3.71,4.55-5.07,7.13Q1078.21,1845.15,1042.31,1913.63Z" transform="translate(-1040.53 -1701.64)"/><path class="cls-4" d="M1119.26,1769.59l-.11-2c3.63-7,7.3-13.93,10.88-20.93,1.76-3.43,3.27-7,8.07-6.87,4.44.1,5.69,3.55,7.34,6.65q11.45,21.54,22.92,43.07c-6.13,11.23-17.72,17-26.1,25.93C1136.33,1799.32,1126.27,1785.22,1119.26,1769.59Z" transform="translate(-1040.53 -1701.64)"/><path class="cls-5" d="M1119.26,1769.59c7,15.63,17.07,29.73,23,45.9q-48.65,49-97.32,97.91c-.75.75-1.62,1.62-2.62.24q35.92-68.46,71.87-136.91C1115.54,1774.14,1116.22,1771,1119.26,1769.59Z" transform="translate(-1040.53 -1701.64)"/></svg>