<svg id="Layer_2" data-name="Layer 2" xmlns="http://www.w3.org/2000/svg" xmlns:xlink="http://www.w3.org/1999/xlink" viewBox="0 0 537.03 313.25"><defs><style>.cls-1{fill:none;}.cls-2{clip-path:url(#clip-path);}.cls-3{clip-path:url(#clip-path-2);}.cls-4{fill:#cb001c;}.cls-5{fill:#fff;}.cls-6{fill:#2a3560;}</style><clipPath id="clip-path" transform="translate(-887.48 -1679.88)"><circle class="cls-1" cx="1156" cy="1836.5" r="156.97"/></clipPath><clipPath id="clip-path-2" transform="translate(-887.48 -1679.88)"><rect class="cls-1" x="887.48" y="1679.88" width="537.03" height="313.25"/></clipPath></defs><title>flag-usa</title><g class="cls-2"><g id="USA"><g class="cls-3"><rect class="cls-4" y="289.16" width="537.03" height="24.09"/><rect class="cls-5" y="265.06" width="537.03" height="24.09"/><rect class="cls-4" y="240.98" width="537.03" height="24.08"/><rect class="cls-5" y="216.89" width="537.03" height="24.09"/><rect class="cls-4" y="192.78" width="537.03" height="24.11"/><rect class="cls-5" y="168.7" width="537.03" height="24.08"/><rect class="cls-4" y="144.58" width="537.03" height="24.12"/><rect class="cls-5" y="120.5" width="537.03" height="24.08"/><rect class="cls-4" y="96.41" width="537.03" height="24.09"/><rect class="cls-5" y="72.3" width="537.03" height="24.11"/><rect class="cls-4" y="48.2" width="537.03" height="24.09"/><rect class="cls-5" y="24.11" width="537.03" height="24.09"/><rect class="cls-4" width="537.03" height="24.11"/><rect class="cls-6" width="245.25" height="168.7"/><polygon class="cls-5" points="22.16 18.59 24.25 24.98 30.97 24.98 25.53 28.92 27.59 35.3 22.16 31.36 16.72 35.3 18.84 28.92 13.41 24.98 20.06 24.98 22.16 18.59"/><polygon class="cls-5" points="22.16 46.77 24.25 53.13 30.97 53.13 25.53 57.05 27.59 63.45 22.16 59.5 16.72 63.45 18.84 57.05 13.41 53.13 20.06 53.13 22.16 46.77"/><polygon class="cls-5" points="22.16 74.92 24.25 81.28 30.97 81.28 25.53 85.22 27.59 91.61 22.16 87.66 16.72 91.61 18.84 85.22 13.41 81.28 20.06 81.28 22.16 74.92"/><polygon class="cls-5" points="22.16 103.06 24.25 109.45 30.97 109.45 25.53 113.39 27.59 119.75 22.16 115.83 16.72 119.75 18.84 113.39 13.41 109.45 20.06 109.45 22.16 103.06"/><polygon class="cls-5" points="22.16 131.22 24.25 137.63 30.97 137.63 25.53 141.53 27.59 147.91 22.16 143.97 16.72 147.91 18.84 141.53 13.41 137.63 20.06 137.63 22.16 131.22"/><polygon class="cls-5" points="41.78 33.42 43.78 39.81 50.53 39.81 45.13 43.77 47.16 50.13 41.78 46.2 36.38 50.13 38.41 43.77 33 39.81 39.72 39.81 41.78 33.42"/><polygon class="cls-5" points="41.78 61.59 43.78 67.95 50.53 67.95 45.13 71.91 47.16 78.27 41.78 74.36 36.38 78.27 38.41 71.91 33 67.95 39.72 67.95 41.78 61.59"/><polygon class="cls-5" points="41.78 89.75 43.78 96.13 50.53 96.13 45.13 100.06 47.16 106.44 41.78 102.5 36.38 106.44 38.41 100.06 33 96.13 39.72 96.13 41.78 89.75"/><polygon class="cls-5" points="41.78 117.92 43.78 124.28 50.53 124.28 45.13 128.22 47.16 134.58 41.78 130.63 36.38 134.58 38.41 128.22 33 124.28 39.72 124.28 41.78 117.92"/><polygon class="cls-5" points="61.59 18.59 63.69 24.98 70.41 24.98 64.97 28.92 67.06 35.3 61.59 31.36 56.22 35.3 58.28 28.92 52.84 24.98 59.53 24.98 61.59 18.59"/><polygon class="cls-5" points="61.59 46.77 63.69 53.13 70.41 53.13 64.97 57.05 67.06 63.45 61.59 59.5 56.22 63.45 58.28 57.05 52.84 53.13 59.53 53.13 61.59 46.77"/><polygon class="cls-5" points="61.59 74.92 63.69 81.28 70.41 81.28 64.97 85.22 67.06 91.61 61.59 87.66 56.22 91.61 58.28 85.22 52.84 81.28 59.53 81.28 61.59 74.92"/><polygon class="cls-5" points="61.59 103.06 63.69 109.45 70.41 109.45 64.97 113.39 67.06 119.75 61.59 115.83 56.22 119.75 58.28 113.39 52.84 109.45 59.53 109.45 61.59 103.06"/><polygon class="cls-5" points="61.59 131.22 63.69 137.63 70.41 137.63 64.97 141.53 67.06 147.91 61.59 143.97 56.22 147.91 58.28 141.53 52.84 137.63 59.53 137.63 61.59 131.22"/><polygon class="cls-5" points="81.22 33.42 83.28 39.81 90.03 39.81 84.56 43.77 86.66 50.13 81.22 46.2 75.81 50.13 77.91 43.77 72.44 39.81 79.16 39.81 81.22 33.42"/><polygon class="cls-5" points="81.22 61.59 83.28 67.95 90.03 67.95 84.56 71.91 86.66 78.27 81.22 74.36 75.81 78.27 77.91 71.91 72.44 67.95 79.16 67.95 81.22 61.59"/><polygon class="cls-5" points="81.22 89.75 83.28 96.13 90.03 96.13 84.56 100.06 86.66 106.44 81.22 102.5 75.81 106.44 77.91 100.06 72.44 96.13 79.16 96.13 81.22 89.75"/><polygon class="cls-5" points="81.22 117.92 83.28 124.28 90.03 124.28 84.56 128.22 86.66 134.58 81.22 130.63 75.81 134.58 77.91 128.22 72.44 124.28 79.16 124.28 81.22 117.92"/><polygon class="cls-5" points="101.09 18.59 103.19 24.98 109.84 24.98 104.41 28.92 106.56 35.3 101.09 31.36 95.66 35.3 97.72 28.92 92.34 24.98 99.03 24.98 101.09 18.59"/><polygon class="cls-5" points="101.09 46.77 103.19 53.13 109.84 53.13 104.41 57.05 106.56 63.45 101.09 59.5 95.66 63.45 97.72 57.05 92.34 53.13 99.03 53.13 101.09 46.77"/><polygon class="cls-5" points="101.09 74.92 103.19 81.28 109.84 81.28 104.41 85.22 106.56 91.61 101.09 87.66 95.66 91.61 97.72 85.22 92.34 81.28 99.03 81.28 101.09 74.92"/><polygon class="cls-5" points="101.09 103.06 103.19 109.45 109.84 109.45 104.41 113.39 106.56 119.75 101.09 115.83 95.66 119.75 97.72 113.39 92.34 109.45 99.03 109.45 101.09 103.06"/><polygon class="cls-5" points="101.09 131.22 103.19 137.63 109.84 137.63 104.41 141.53 106.56 147.91 101.09 143.97 95.66 147.91 97.72 141.53 92.34 137.63 99.03 137.63 101.09 131.22"/><polygon class="cls-5" points="120.72 33.42 122.78 39.81 129.47 39.81 124.06 43.77 126.09 50.13 120.72 46.2 115.31 50.13 117.34 43.77 111.94 39.81 118.63 39.81 120.72 33.42"/><polygon class="cls-5" points="120.72 61.59 122.78 67.95 129.47 67.95 124.06 71.91 126.09 78.27 120.72 74.36 115.31 78.27 117.34 71.91 111.94 67.95 118.63 67.95 120.72 61.59"/><polygon class="cls-5" points="120.72 89.75 122.78 96.13 129.47 96.13 124.06 100.06 126.09 106.44 120.72 102.5 115.31 106.44 117.34 100.06 111.94 96.13 118.63 96.13 120.72 89.75"/><polygon class="cls-5" points="120.72 117.92 122.78 124.28 129.47 124.28 124.06 128.22 126.09 134.58 120.72 130.63 115.31 134.58 117.34 128.22 111.94 124.28 118.63 124.28 120.72 117.92"/><polygon class="cls-5" points="140.53 18.59 142.63 24.98 149.31 24.98 143.91 28.92 146 35.3 140.53 31.36 135.16 35.3 137.19 28.92 131.78 24.98 138.47 24.98 140.53 18.59"/><polygon class="cls-5" points="140.53 46.77 142.63 53.13 149.31 53.13 143.91 57.05 146 63.45 140.53 59.5 135.16 63.45 137.19 57.05 131.78 53.13 138.47 53.13 140.53 46.77"/><polygon class="cls-5" points="140.53 74.92 142.63 81.28 149.31 81.28 143.91 85.22 146 91.61 140.53 87.66 135.16 91.61 137.19 85.22 131.78 81.28 138.47 81.28 140.53 74.92"/><polygon class="cls-5" points="140.53 103.06 142.63 109.45 149.31 109.45 143.91 113.39 146 119.75 140.53 115.83 135.16 119.75 137.19 113.39 131.78 109.45 138.47 109.45 140.53 103.06"/><polygon class="cls-5" points="140.53 131.22 142.63 137.63 149.31 137.63 143.91 141.53 146 147.91 140.53 143.97 135.16 147.91 137.19 141.53 131.78 137.63 138.47 137.63 140.53 131.22"/><polygon class="cls-5" points="160.16 33.42 162.22 39.81 168.97 39.81 163.53 43.77 165.59 50.13 160.16 46.2 154.75 50.13 156.84 43.77 151.41 39.81 158.13 39.81 160.16 33.42"/><polygon class="cls-5" points="160.16 61.59 162.22 67.95 168.97 67.95 163.53 71.91 165.59 78.27 160.16 74.36 154.75 78.27 156.84 71.91 151.41 67.95 158.13 67.95 160.16 61.59"/><polygon class="cls-5" points="160.16 89.75 162.22 96.13 168.97 96.13 163.53 100.06 165.59 106.44 160.16 102.5 154.75 106.44 156.84 100.06 151.41 96.13 158.13 96.13 160.16 89.75"/><polygon class="cls-5" points="160.16 117.92 162.22 124.28 168.97 124.28 163.53 128.22 165.59 134.58 160.16 130.63 154.75 134.58 156.84 128.22 151.41 124.28 158.13 124.28 160.16 117.92"/><polygon class="cls-5" points="180.03 18.59 182.13 24.98 188.81 24.98 183.41 28.92 185.44 35.3 180.03 31.36 174.66 35.3 176.69 28.92 171.28 24.98 177.97 24.98 180.03 18.59"/><polygon class="cls-5" points="180.03 46.77 182.13 53.13 188.81 53.13 183.41 57.05 185.44 63.45 180.03 59.5 174.66 63.45 176.69 57.05 171.28 53.13 177.97 53.13 180.03 46.77"/><polygon class="cls-5" points="180.03 74.92 182.13 81.28 188.81 81.28 183.41 85.22 185.44 91.61 180.03 87.66 174.66 91.61 176.69 85.22 171.28 81.28 177.97 81.28 180.03 74.92"/><polygon class="cls-5" points="180.03 103.06 182.13 109.45 188.81 109.45 183.41 113.39 185.44 119.75 180.03 115.83 174.66 119.75 176.69 113.39 171.28 109.45 177.97 109.45 180.03 103.06"/><polygon class="cls-5" points="180.03 131.22 182.13 137.63 188.81 137.63 183.41 141.53 185.44 147.91 180.03 143.97 174.66 147.91 176.69 141.53 171.28 137.63 177.97 137.63 180.03 131.22"/><polygon class="cls-5" points="199.66 33.42 201.69 39.81 208.41 39.81 203.03 43.77 205.03 50.13 199.66 46.2 194.19 50.13 196.28 43.77 190.91 39.81 197.56 39.81 199.66 33.42"/><polygon class="cls-5" points="199.66 61.59 201.69 67.95 208.41 67.95 203.03 71.91 205.03 78.27 199.66 74.36 194.19 78.27 196.28 71.91 190.91 67.95 197.56 67.95 199.66 61.59"/><polygon class="cls-5" points="199.66 89.75 201.69 96.13 208.41 96.13 203.03 100.06 205.03 106.44 199.66 102.5 194.19 106.44 196.28 100.06 190.91 96.13 197.56 96.13 199.66 89.75"/><polygon class="cls-5" points="199.66 117.92 201.69 124.28 208.41 124.28 203.03 128.22 205.03 134.58 199.66 130.63 194.19 134.58 196.28 128.22 190.91 124.28 197.56 124.28 199.66 117.92"/><polygon class="cls-5" points="219.47 18.59 221.59 24.98 228.25 24.98 222.84 28.92 224.94 35.3 219.47 31.36 214.09 35.3 216.13 28.92 210.72 24.98 217.41 24.98 219.47 18.59"/><polygon class="cls-5" points="219.47 46.77 221.59 53.13 228.25 53.13 222.84 57.05 224.94 63.45 219.47 59.5 214.09 63.45 216.13 57.05 210.72 53.13 217.41 53.13 219.47 46.77"/><polygon class="cls-5" points="219.47 74.92 221.59 81.28 228.25 81.28 222.84 85.22 224.94 91.61 219.47 87.66 214.09 91.61 216.13 85.22 210.72 81.28 217.41 81.28 219.47 74.92"/><polygon class="cls-5" points="219.47 103.06 221.59 109.45 228.25 109.45 222.84 113.39 224.94 119.75 219.47 115.83 214.09 119.75 216.13 113.39 210.72 109.45 217.41 109.45 219.47 103.06"/><polygon class="cls-5" points="219.47 131.22 221.59 137.63 228.25 137.63 222.84 141.53 224.94 147.91 219.47 143.97 214.09 147.91 216.13 141.53 210.72 137.63 217.41 137.63 219.47 131.22"/></g></g></g></svg>