<svg id="Layer_2" data-name="Layer 2" xmlns="http://www.w3.org/2000/svg" viewBox="0 0 268.9 268.72"><defs><style>.cls-1{fill:#99bc51;}</style></defs><title>nodejs-logo</title><path class="cls-1" d="M1145.76,1701.66c43.5-.1,73.92,11.2,99.23,34.78,28.27,26.33,43.63,58.92,44,97.88.64,76.82-59.7,132.91-127.82,135.91-80.27,3.53-140.8-61.47-141.08-133.48C1019.76,1763.44,1079.87,1700.41,1145.76,1701.66Zm-20.65,215c8.88,5.26,17.15,10.12,25.39,15.05,6.27,3.76,12.3,3.05,18.42-.5q34.32-19.89,68.74-39.59c6.45-3.68,9.39-8.89,9.35-16.33-.14-25.69-.32-51.39.1-77.08.15-9.5-3.42-15.51-11.65-20.1-20.9-11.66-41.69-23.56-62.13-36-9.65-5.88-17.9-6.19-27.74-.15-21.39,13.14-43.34,25.39-65.14,37.85-5.75,3.29-8.9,7.87-8.91,14.48q0,41.54,0,83.08c0,5,1.9,9.66,6,12.06,9.3,5.44,18.12,11.85,28.52,15.27,16.34,5.38,29.59-3.85,29.65-20.86.09-26.36-.1-52.72.16-79.08.05-5.18-2-6-6.47-6s-6.13.83-6.08,5.75c.26,25.36.13,50.72.12,76.08,0,11.29-7.69,16.1-17.74,10.9-6.35-3.28-12.42-7.11-18.7-10.54-2.52-1.37-3.38-3.17-3.37-6,.09-25.69.15-51.39-.05-77.08,0-4.23,1.38-6.6,5-8.66,22.54-12.83,45-25.85,67.4-38.87a5.73,5.73,0,0,1,6.44,0q34.54,20,69.19,39.81a5.69,5.69,0,0,1,3.23,5.6q-.09,39.54,0,79.08a6.72,6.72,0,0,1-3.75,6.46q-34.43,19.71-68.78,39.54a5.38,5.38,0,0,1-6.41-.16c-4.75-3-9.75-5.71-14.58-8.64-1.37-.83-2.68-1.45-4.21-.78C1133.36,1912.9,1129.62,1914.63,1125.11,1916.67Zm56.2-40.48a46.43,46.43,0,0,0,23.51-4c7.87-3.75,12.37-10,12.73-18.81.33-8.05-2.06-14.9-10.11-18.36a46,46,0,0,0-9.48-3c-10.3-2-20.67-3.54-31-5.5-3.9-.74-7.42-2.29-7.23-7.4.16-4.25,3.18-7.86,7.9-9,6.42-1.59,13-1.36,19.42-.79,7.32.64,12.45,4.48,14.53,11.75.47,1.65,1.17,3,2.91,2.8,3.25-.39,6.72,1,9.71-1.1.44-.3.42-1.55.31-2.32-1.24-8.3-4.37-15.54-12.58-19.11-13.94-6.06-28.25-6.12-42.38-1-9.28,3.35-13.93,11.2-13.56,20.64.36,9.15,4.68,14.22,14.91,17.59,6.54,2.15,13.3,2.93,20.11,3.55,6.3.57,12.59,1.32,18.45,4a7,7,0,0,1,4.36,7.15c-.12,4.3-2,7.54-6.07,8.85a52.83,52.83,0,0,1-33.85-.27c-3.2-1.09-6-3.87-6.26-7.29-.51-6.7-4.78-6.23-9.51-6.29-4.05-.05-5,1.77-4.44,5.2,1.06,7.06,3.92,13,10.27,16.88C1162.3,1875.45,1171.43,1876.57,1181.3,1876.19Z" transform="translate(-1020.05 -1701.64)"/></svg>